<svg width="32" height="32" viewBox="0 0 32 32" fill="none" xmlns="http://www.w3.org/2000/svg">

<path d="M22.25 4C19.6688 4 17.4088 5.11 16 6.98625C14.5912 5.11 12.3312 4 9.75 4C7.69528 4.00232 5.72539 4.81958 4.27248 6.27248C2.81958 7.72539 2.00232 9.69528 2 11.75C2 20.5 14.9737 27.5825 15.5262 27.875C15.6719 27.9533 15.8346 27.9943 16 27.9943C16.1654 27.9943 16.3281 27.9533 16.4737 27.875C17.0262 27.5825 30 20.5 30 11.75C29.9977 9.69528 29.1804 7.72539 27.7275 6.27248C26.2746 4.81958 24.3047 4.00232 22.25 4ZM16" fill="#E07B67"/>
</svg>